<?xml version="1.0" encoding="utf-8" ?><svg xmlns="http://www.w3.org/2000/svg" xmlns:xlink="http://www.w3.org/1999/xlink" width="1024" height="1024" viewBox="0 0 1024 1024"><path fill="white" d="M0 0L1024 0L1024 1024L0 1024L0 0Z"/><path d="M188.549 259.398L426.504 259.484C516.597 259.616 587.571 327.229 587.069 418.573C586.988 460.471 570.178 500.602 540.372 530.049C513.192 556.688 477.654 573.136 439.755 576.615C421.555 578.288 397.092 577.511 378.192 577.508L286.61 577.345C272.722 609.051 258.643 640.673 244.375 672.21C236.414 689.81 227.923 709.862 219.452 727.001L208.868 726.968L110.044 726.98C125.135 694.79 139.113 661.538 154.061 629.269C163.342 609.231 171.142 590.375 183.056 571.755C217.613 517.745 274.822 480.093 340.044 479.106C360.193 478.802 380.606 479.161 400.769 478.986C410.508 478.901 423.104 479.416 432.579 478.328C438.746 477.623 444.799 476.143 450.596 473.923C482.521 461.341 498.147 426.987 485.185 394.918C478.31 377.89 464.019 364.945 446.395 359.784C433.8 356.087 418.621 356.968 405.387 356.972L354.204 356.945C323.898 356.915 299.431 358.504 270.61 345.922C232.453 329.264 203.789 297.841 188.549 259.398Z"/><path d="M511.105 259.15C585.106 260.295 662.968 259.344 736.878 259.47C883.66 259.721 958.241 425.672 852.519 530.718C825.763 557.302 791.954 573.142 754.497 576.83C741.659 578.091 728.644 577.562 715.77 577.558C697.592 577.615 679.413 577.551 661.235 577.367C653.114 597.352 643.182 618.856 634.342 638.614L594.85 726.975L587.396 726.919L488.29 726.997C495.785 712.526 504.569 691.419 511.372 676.252L552.372 584.672L564.753 556.956C569.484 546.237 572.868 537.728 579.051 527.627C594.689 502.079 614.14 483.37 645.006 479.651C653.658 478.609 663.714 478.963 672.541 478.964L720.536 478.967C733.066 478.945 744.397 479.674 756.717 476.575C824.076 459.634 817.406 364.348 748.255 357.438C741.047 356.718 732.99 357.07 725.668 357.053L682.988 357.052C665.368 357.051 651.033 357.865 633.64 353.634C607.259 347.193 583.852 331.974 567.259 310.477C559.672 300.74 556.288 293.961 547.103 284.701C533.491 270.976 526.434 268.056 511.105 259.15Z"/></svg>