<svg xmlns="http://www.w3.org/2000/svg" viewBox="0 0 633 584" width="633" height="584"><defs></defs><g transform="matrix(1,0,0,1,-183.968933216,-225.366288257)">
<g>
	<g transform="matrix(1,0,0,1,512,512)">
		<g transform="matrix(1,0,0,1,-1.301513672,2.895818127)">
			<path d="M-10,-289.52952986515334 C164.7665460794317,-289.52952986515334 306.72955311105824,-159.757987297106 306.72955311105824,0.00000000000011368683772161603 C306.72955311105824,159.75798729710624 164.7665460794317,289.52952986515356 -10,289.52952986515356 C-184.7665460794317,289.52952986515356 -326.72955311105824,159.75798729710624 -326.72955311105824,0.00000000000011368683772161603 C-326.72955311105824,-159.757987297106 -184.7665460794317,-289.52952986515334 -10,-289.52952986515334 Z" fill="#ffffff" stroke="#ffffff" stroke-width="5.999999999999999"/>
		</g>
		<g transform="matrix(1,0,0,1,-1.301513672,2.895818127)">
			<path d="M-226.17768229327487,-211.501416228229 C-226.17768229327305,-211.5014162282273 -103.052001952,-211.460998532 -103.052001952,-211.460998532 C-103.052001952,-211.460998532 -65.19900512,-211.467987066 -65.19900512,-211.467987066 C-45.28399658,-211.467987066 -29.520996096,-211.890991214 -9.855010988,-207.16799926199997 C16.223999018,-201.02398681399998 40.127990724,-187.86801147799997 59.273010254,-169.123992926 C85.25201415800001,-143.23599243799998 99.911987304,-108.10800170799999 100.041992186,-71.43200684199999 C100.44097899799999,-33.881988532 85.65997315,2.237976076 59.05102538599999,28.736022951999995 C34.200012206000004,53.70501708599999 3.424987785999999,68.263000484 -31.686004634,71.192993158 C-44.562011722,72.268005376 -57.12799072799999,72.020996096 -70.028991694,72.04302978599999 C-70.028991694,72.04302978599999 -129.09799195,72.13702392399999 -129.09799195,72.13702392399999 C-131.15100097799998,76.13000488799999 -133.661987302,82.48199462999999 -135.55099486999998,86.80999755399999 C-135.55099486999998,86.80999755399999 -147.618988038,114.471984858 -147.618988038,114.471984858 C-161.248992916,145.846984864 -188.230837246,198.09833236199998 -202.66781844799996,229.02734848 C-202.66781844799996,229.02734848 -202.38343218753,229.48320045016942 -201.936217045247,230.24047769118212 C-177.19111180602005,247.5128482032033 -149.58589539415965,261.530511235227 -119.88923043,271.590815188 C-104.00329817199999,236.88408441599998 -76.021318202,177.438744896 -71.764007564,167.828979486 C-71.764007564,167.828979486 -37.709991456,90.35699463 -37.709991456,90.35699463 C30.655029295999995,88.12499999799999 84.116027838,47.08801269199999 109.528991694,-15.296997071999998 C136.74499512399998,-16.391998293999997 159.843017582,-11.563995365999999 181.18902587399998,-32.388000484 C191.249023444,-42.066009524 196.93298340399997,-55.424987786 196.93103027799998,-69.385009764 C197.140014648,-83.94799805 191.500976558,-97.98599242599998 181.27502441599998,-108.356994634 C161.640014644,-128.005004876 135.81097412,-124.174011234 109.68902587599999,-124.191986086 C95.13500976999998,-164.128997802 69.50097656199999,-192.08599853799998 31.729003904000002,-211.467987066 C32.818969732,-211.51300048200002 33.908996586,-211.54000854 34.999999996,-211.54998779599998 C34.999999996,-211.54998779599998 105.138977044,-211.490997312 105.138977044,-211.490997312 C120.18103028000002,-211.489013666 139.16198731,-212.007995612 153.853027338,-210.62399292199999 C187.52801513199998,-207.410003668 219.052001948,-192.640014644 243.07299805199997,-168.82199096 C269.148986816,-143.259002684 283.924011234,-108.333007818 284.109985358,-71.81799317 C284.23602294799997,-32.992004388 268.913024908,1.8740234379999998 241.54199218399998,29.200988768 C218.513000492,52.075988776 188.533996584,66.648010254 156.32000732199998,70.625976568 C142.37701416,72.293029788 128.64099121599997,71.995971684 114.635986328,72.013000486 C114.635986328,72.013000486 66.815002446,71.978027338 66.815002446,71.978027338 C61.63000487999999,83.293029792 57.09100342000001,95.056030272 51.96301269199999,106.38397216999999 C37.275682173999996,138.83311978199998 -12.25593739,248.089901052 -31.051986928,288.898396276 C-24.093219517999998,289.316946702 -17.073478062,289.52952987 -10,289.52952987 C164.76654607999998,289.52952987 306.729553112,159.757987298 306.729553112,0 C306.729553112,-159.757987298 164.76654607999998,-289.52952987 -10,-289.52952987 C-93.52345889584196,-289.52952987000003 -169.5545163935495,-259.88942044211836 -226.17768229327487,-211.501416228229 ZM-231.93129768978122,-206.46008881641117 C-290.4243684359336,-153.91199187540047 -326.729553112,-80.79031671012049 -326.729553112,0 C-326.72955311199996,62.15435340271571 -305.24169465522084,119.7698871974331 -268.69416215338845,166.97045502299017 C-268.69416215338566,166.97045502298826 -239.80398559999998,104.164001466 -239.80398559999998,104.164001466 C-233.12298583400002,89.200988772 -226.77600097999996,74.387023928 -217.75601196,60.679016118 C-188.018005368,15.484008792 -140.496002196,-13.365997316 -86.016998288,-15.246002198 C-67.976013186,-15.868988043999998 -37.888000489999996,-13.403015136 -22.162994382,-19.532989504 C-8.398010254,-25.046997066000003 2.6649780319999987,-35.7250061 8.661010745999999,-49.286987302 C13.979980472000001,-61.561004638 14.015014646000001,-77.37399291999999 8.997985845999999,-89.739990228 C2.2639770539999997,-106.25601196 -12.02700806,-118.507995606 -29.37701416,-122.640014644 C-37.881988526,-124.704010004 -49.57699585,-124.17999267799999 -58.523010256,-124.171997068 C-58.523010256,-124.171997068 -97.59298706199999,-124.12701415800001 -97.59298706199999,-124.12701415800001 C-107.924011234,-124.117004396 -118.653991698,-123.799987794 -128.876007082,-125.18600463599999 C-139.528015134,-126.674987796 -149.934997552,-129.565002448 -159.82901001599998,-133.781005862 C-192.44009748309827,-147.7304163163382 -217.75096319138584,-174.24615585362403 -231.93129768978122,-206.46008881641117 Z" fill="#010001" stroke="#010100" stroke-width="6"/>
		</g>
	</g>
</g></g></svg>